<?xml version="1.0" encoding="UTF-8"?>
<svg id="Layer_2" data-name="Layer 2" xmlns="http://www.w3.org/2000/svg" viewBox="0 0 378.56 312.39">
  <defs>
    <style>
      .cls-1 {
        fill: #fff;
      }

      .cls-2 {
        fill: none;
        stroke: #000;
        stroke-linecap: round;
        stroke-miterlimit: 10;
        stroke-width: 6px;
      }

      .cls-3 {
        fill: #43433a;
      }

      .cls-4 {
        fill: #4e9fc9;
      }

      .cls-5 {
        fill: #f9a83d;
      }
    </style>
  </defs>
  <g id="Layer_1-2" data-name="Layer 1">
    <g>
      <path class="cls-4" d="M184.86,292.56c48.76-2.25,99.12-25.87,107.55-77.6,8.43-51.73-38.8-75.43-38.8-75.43,14.62-14.14,33.18-10.6,33.18-10.6-14.62-8.43-23.05-1.69-23.05-1.69l18.65-17.42c-29.32-7.31-46.64,17.94-46.64,17.94-4.96-1.89-10.29-3.41-15.57-4.64-23.51-5.46-48-5.46-71.5,0-5.28,1.23-10.6,2.75-15.57,4.64,0,0-17.32-25.25-46.64-17.94l18.65,17.42s-8.43-6.75-23.05,1.69c0,0,18.56-3.53,33.18,10.6,0,0-47.23,23.69-38.8,75.43,8.43,51.73,58.79,75.35,107.55,77.6"/>
      <path class="cls-5" d="M184.43,312.39l30.97-40.98c-21.91-10.35-30.97-34.09-30.97-34.09,0,0-9.06,23.74-30.97,34.09l30.97,40.98"/>
      <g>
        <circle class="cls-1" cx="133.1" cy="215.56" r="51.44"/>
        <circle class="cls-1" cx="235.76" cy="215.56" r="51.44"/>
      </g>
      <g>
        <path class="cls-3" d="M121.81,280.49c-36.83,0-66.8-29.97-66.8-66.8s29.97-66.8,66.8-66.8,66.8,29.97,66.8,66.8-29.97,66.8-66.8,66.8Zm0-125.01c-32.1,0-58.21,26.11-58.21,58.21s26.12,58.21,58.21,58.21,58.21-26.12,58.21-58.21-26.12-58.21-58.21-58.21Z"/>
        <path class="cls-3" d="M246.55,280.49c-36.83,0-66.8-29.97-66.8-66.8s29.97-66.8,66.8-66.8,66.8,29.97,66.8,66.8-29.97,66.8-66.8,66.8Zm0-125.01c-32.1,0-58.21,26.11-58.21,58.21s26.12,58.21,58.21,58.21,58.21-26.12,58.21-58.21-26.12-58.21-58.21-58.21Z"/>
      </g>
      <g>
        <circle cx="127.32" cy="209.77" r="23.32"/>
        <circle cx="241.76" cy="209.77" r="23.32"/>
      </g>
      <g>
        <circle class="cls-1" cx="139.06" cy="202.15" r="7.62"/>
        <circle class="cls-1" cx="252.88" cy="202.15" r="7.62"/>
      </g>
      <path d="M184.54,0s14.07,19.18,184.54,57.53c0,0-17.05,17.05-84.17,30.9v-17.05c-66.78-28.14-133.7-28.2-200.74,0v17.05C17.05,74.58,0,57.53,0,57.53,170.47,19.18,184.54,0,184.54,0Z"/>
      <path d="M285.03,93.08v7.14c-24.53-4.73-37.28-.23-53.26,17.21-31.64-11.33-63.46-11.46-95.44,0-15.99-17.44-28.31-21.95-52.26-17.21v-7.14c51.74-26.06,149.23-26.06,200.97,0Z"/>
      <path class="cls-2" d="M338.95,65.46s6.68,.95,15.75,21.24"/>
      <circle class="cls-4" cx="360.98" cy="98.64" r="11.93"/>
      <path d="M378.53,150.42c-.66-2.64-1.32-5.29-1.97-7.94v-.78c0-.33-.15-.55-.37-.69-.25-.98-.49-1.96-.73-2.95-.05-.18-.13-.3-.23-.4,0-.14,0-.29,0-.43,0-.33-.15-.57-.38-.7-.05-.19-.1-.38-.16-.57,.37,.21,.85,.17,1.08-.31,.19-.38,.32-.79,.43-1.2,.21,.93,.43,1.85,.64,2.79,.23,1.08,1.89,.62,1.65-.46-.64-2.88-1.3-5.74-1.98-8.61-.1-2.45-.39-4.9-.85-7.31-.94-4.96-2.67-9.74-5.06-14.18-.07-.14-.17-.24-.28-.31,.02-.21,.02-.42,.04-.62,.09-.89-1.01-1.05-1.49-.51-.5-.12-1.08,.14-1.04,.8,.01,.26,.03,.51,.05,.77-.47-.05-.94,.22-.88,.81,.07,.66,.14,1.32,.21,1.98-.02-.02-.05-.03-.07-.05-.1-.38-.18-.76-.28-1.14-.27-1.07-1.93-.62-1.65,.46,.03,.1,.05,.21,.08,.31-.22-.03-.43,0-.6,.11-.1-.13-.22-.22-.35-.28-.05-.27-.09-.54-.13-.82-.18-1.09-1.83-.62-1.65,.46,.07,.42,.13,.85,.2,1.28-.09-.22-.18-.44-.28-.66-.33-.74-1.24-.46-1.49,.15-.15-.18-.36-.27-.58-.29,0-.08-.01-.15-.02-.23-.06-1.1-1.77-1.1-1.72,0,0,.1,.01,.19,.02,.28-.18-.06-.37-.06-.55,0-.07-.7-.15-1.4-.21-2.09-.1-1.09-1.81-1.1-1.72,0,.02,.27,.06,.55,.08,.82-.18,.07-.33,.19-.39,.39-.06-.1-.14-.19-.23-.26,.03-.08,.07-.17,.1-.25,.45-1-1.02-1.87-1.48-.86-.06,.13-.11,.27-.17,.41-.05-.17-.09-.33-.14-.49-.22-.74-1.09-.74-1.49-.31-.47-.09-1.04,.18-1.07,.81-.15,3.11-.29,6.21-.44,9.32-.37,1.6-.68,3.22-.9,4.86-.32,2.36-.56,4.8-.42,7.19,.07,1.12,.25,2.21,.6,3.24-.03,.74-.05,1.49-.05,2.23-.02,2.64,.29,5.28,1.49,7.67,.5,.98,1.98,.12,1.48-.86-.97-1.93-1.22-4.06-1.25-6.2,.07,.05,.14,.1,.21,.12-.12,.74,1.08,1.29,1.64,.52,.03-.05,.07-.1,.1-.15v11.68c0,.68,.65,.94,1.16,.77,.33,1.45,.75,2.87,1.29,4.26,.32,.82,1.48,.69,1.68,.06,.18-.05,.35-.16,.48-.35,.6-.88,.96-1.84,1.17-2.84,.02,0,.05,0,.08,0,.42,0,.92-.4,.86-.86l-.2-1.54c.31,.03,.65-.08,.82-.34,.37,1.93,.74,3.86,1.14,5.77,.23,1.08,1.88,.62,1.65-.46-.03-.17-.06-.33-.1-.5,.5-.02,1.02-.43,.9-1.08-.62-3.3-1.08-6.63-1.4-9.96,.03,0,.06,0,.09,0,.11,1.04,.21,2.08,.29,3.13,.04,.54,.47,.81,.9,.82,.32,2.52,.67,5.03,1.06,7.53,.12,.77,.98,.77,1.41,.31,.29,.03,.58-.06,.74-.28,.02,.44,.05,.88,.07,1.32,.06,1.1,1.77,1.11,1.72,0v-.03c.53,.19,1.2-.05,1.12-.76-.08-.8-.15-1.59-.21-2.38,.47,.56,1.59,.39,1.51-.5,0-.09,0-.17-.02-.25,.21,0,.41-.07,.57-.23,.24,1.37,.49,2.74,.73,4.1,.19,1.06,1.76,.65,1.67-.37,.19,.16,.45,.23,.74,.15,.41-.11,.77-.62,.6-1.05-.15-.39-.3-.78-.45-1.17,.15-.23,.2-.54,.04-.85-.09-.18-.17-.37-.26-.55,.22,0,.44-.08,.6-.23,.19,.76,.38,1.52,.57,2.28,.27,1.07,1.92,.62,1.65-.46Zm-25.91-31.08s-.05,.05-.07,.08l.12-2.57c.19-.82,.41-1.64,.64-2.45-.28,1.64-.5,3.29-.69,4.94Zm3.54,16.61c-.03-.15-.07-.31-.11-.46,.1-1.25,.21-2.51,.35-3.76,0,.73,.01,1.45,.02,2.17-.1,.69-.18,1.37-.26,2.05Zm3.08,1.69v-4.34c.11,2.32,.22,4.63,.34,6.96-.11-.88-.22-1.75-.34-2.62Zm7.95,6.22c.13-.13,.21-.31,.21-.56,.03,.36,.06,.73,.09,1.09,.09,1.38,.18,2.77,.26,4.16-.18-1.57-.37-3.13-.56-4.69Zm3.51-31.84c.06,.22,.11,.43,.17,.65-.14,.08-.27,.19-.35,.34-.12-1.06-.21-2.12-.24-3.18,.22,.46,.43,.93,.63,1.4-.19,.18-.29,.46-.2,.8Zm1.21,34.09c-.03-.57-.05-1.13-.06-1.69,.02,0,.03-.01,.06-.02,.02,.05,.04,.11,.06,.16,.12,.73,.24,1.45,.37,2.18-.15-.21-.29-.42-.42-.63Zm1.04-6.08c-.1-.62-.2-1.24-.3-1.86,.02,.02,.05,.03,.07,.05,.21,.8,.41,1.6,.61,2.4,.05,.19,.15,.34,.27,.43,.01,.31,.02,.62,.04,.93-.23-.65-.47-1.3-.69-1.95Zm.64,3.89c-.03-.18-.06-.35-.09-.53,.09-.05,.16-.12,.22-.19,.03,.45,.06,.91,.1,1.36-.08-.21-.16-.42-.23-.64Zm.63-9.61c-.04-.49-.08-.97-.14-1.46,0-2.52-.09-5.04-.35-7.55-.13-1.14-.3-2.28-.51-3.41,.54,2.17,1.07,4.33,1.59,6.51,.04,.98,.05,1.97,.02,2.96-.03,1.12-.02,2.31-.49,3.35-.04-.13-.08-.26-.11-.4Z"/>
    </g>
  </g>
</svg>